name C:\Users\antoi\Documents\MyRepositories\upper-imu-dc\Results\main_tracking\Case_93\kinematics.mot
datacolumns 43
datarows 11
range 4.50000000 4.70000000
endheader 
time	clav_prot	clav_elev	scapula_abduction	scapula_elevation	scapula_upward_rot	scapula_winging	plane_elv	shoulder_elv	axial_rot	TrapeziusScapula_M/activation	TrapeziusScapula_S/activation	TrapeziusScapula_I/activation	TrapeziusClavicle_S/activation	SerratusAnterior_I/activation	SerratusAnterior_M/activation	SerratusAnterior_S/activation	Rhomboideus_S/activation	Rhomboideus_I/activation	LevatorScapulae/activation	Coracobrachialis/activation	DeltoideusClavicle_A/activation	DeltoideusScapula_P/activation	DeltoideusScapula_M/activation	LatissimusDorsi_S/activation	LatissimusDorsi_M/activation	LatissimusDorsi_I/activation	PectoralisMajorClavicle_S/activation	PectoralisMajorThorax_I/activation	PectoralisMajorThorax_M/activation	TeresMajor/activation	Infraspinatus_I/activation	Infraspinatus_S/activation	PectoralisMinor/activation	TeresMinor/activation	Subscapularis_S/activation	Subscapularis_M/activation	Subscapularis_I/activation	Supraspinatus_P/activation	Supraspinatus_A/activation	TRIlong/activation	BIC_long/activation	BIC_brevis/activation	
          4.50000000	        -30.06834530	         -2.03023374	        -16.15784838	         -6.25548092	         27.98356178	          0.42027731	         -2.62930957	         72.97052921	          2.63535785	          0.01856013	          0.07780597	          0.01228182	          0.03067035	          0.06271519	          0.08894527	          0.01477534	          0.01756023	          0.01459725	          0.02351627	          0.02752001	          0.08935700	          0.01063096	          0.11537273	          0.01126654	          0.01064445	          0.01094763	          0.02727979	          0.01078919	          0.01457890	          0.01076205	          0.01596537	          0.01788990	          0.01085817	          0.01315278	          0.02060238	          0.01620277	          0.01263323	          0.03553568	          0.06852693	          0.01029207	          0.06624917	          0.02615183	
          4.52000000	        -30.46680878	         -1.83069348	        -16.50299823	         -6.23864630	         28.51346419	          0.14908518	         -1.92841203	         73.27084116	          2.74334545	          0.01869824	          0.07823442	          0.01236784	          0.03054659	          0.06286742	          0.08898252	          0.01474748	          0.01748679	          0.01450190	          0.02311920	          0.02837198	          0.09078450	          0.01060433	          0.11512951	          0.01125985	          0.01064176	          0.01092924	          0.02753101	          0.01079358	          0.01467894	          0.01076379	          0.01592362	          0.01781665	          0.01085931	          0.01310420	          0.02081518	          0.01626430	          0.01263082	          0.03581142	          0.06927150	          0.01029097	          0.06647920	          0.02677831	
          4.54000000	        -30.88074641	         -1.63582454	        -16.85426664	         -6.22942481	         29.06468196	         -0.13223605	         -1.21268820	         73.54910453	          2.81759112	          0.01884155	          0.07857618	          0.01246287	          0.03039800	          0.06296489	          0.08891313	          0.01472060	          0.01740963	          0.01441104	          0.02270481	          0.02935424	          0.09226794	          0.01057858	          0.11463670	          0.01125574	          0.01064079	          0.01091459	          0.02784311	          0.01080151	          0.01481931	          0.01076520	          0.01584666	          0.01768392	          0.01086276	          0.01305160	          0.02107825	          0.01635143	          0.01263441	          0.03610478	          0.07011461	          0.01028982	          0.06675538	          0.02749311	
          4.56000000	        -31.30897538	         -1.44565358	        -17.21164743	         -6.22693501	         29.63383906	         -0.42311013	         -0.48214225	         73.80583070	          2.86024961	          0.01898909	          0.07887258	          0.01256171	          0.03023553	          0.06300449	          0.08878749	          0.01469637	          0.01733568	          0.01433467	          0.02230233	          0.03045969	          0.09384280	          0.01055374	          0.11400834	          0.01125315	          0.01064083	          0.01090271	          0.02820907	          0.01081272	          0.01499819	          0.01076597	          0.01573436	          0.01749815	          0.01086808	          0.01299419	          0.02139007	          0.01646411	          0.01264443	          0.03642262	          0.07104431	          0.01028844	          0.06707193	          0.02829602	
          4.58000000	        -31.74955616	         -1.25944182	        -17.57524392	         -6.22943605	         30.21606196	         -0.72271450	          0.26371554	         74.04216503	          2.87712115	          0.01913887	          0.07916257	          0.01265614	          0.03007228	          0.06301368	          0.08862227	          0.01467455	          0.01727244	          0.01428008	          0.02194007	          0.03165823	          0.09545174	          0.01052931	          0.11338565	          0.01125205	          0.01064240	          0.01089467	          0.02861528	          0.01082598	          0.01519883	          0.01076682	          0.01559865	          0.01728199	          0.01087433	          0.01293350	          0.02173612	          0.01659400	          0.01265884	          0.03675843	          0.07202922	          0.01028744	          0.06741868	          0.02916843	
          4.60000000	        -32.20017986	         -1.07589579	        -17.94504159	         -6.23475191	         30.80616607	         -1.03021595	          1.02539499	         74.25952242	          2.87567396	          0.01932631	          0.07939509	          0.01276719	          0.02992896	          0.06293444	          0.08846789	          0.01465135	          0.01723002	          0.01423558	          0.02162847	          0.03289943	          0.09712259	          0.01051281	          0.11271581	          0.01124144	          0.01063441	          0.01087082	          0.02902679	          0.01082558	          0.01535683	          0.01075935	          0.01544562	          0.01706925	          0.01087685	          0.01286640	          0.02210677	          0.01673235	          0.01267460	          0.03709529	          0.07307472	          0.01028467	          0.06776835	          0.03008286	
          4.62000000	        -32.65837968	         -0.89145055	        -18.32056322	         -6.23934431	         31.40031772	         -1.34582787	          1.80296211	         74.45746845	          2.86305501	          0.01950925	          0.07993141	          0.01282884	          0.02982830	          0.06282371	          0.08844595	          0.01461424	          0.01720829	          0.01423646	          0.02140646	          0.03405285	          0.09854955	          0.01049215	          0.11223074	          0.01122514	          0.01061906	          0.01084452	          0.02937447	          0.01079997	          0.01546711	          0.01075312	          0.01533846	          0.01690619	          0.01085740	          0.01280596	          0.02241961	          0.01683217	          0.01268107	          0.03742400	          0.07392265	          0.01028039	          0.06800302	          0.03095892	
          4.64000000	        -33.12084542	         -0.70251500	        -18.70016740	         -6.23963513	         31.99456522	         -1.66942175	          2.59419958	         74.63749251	          2.84415925	          0.01966229	          0.08041476	          0.01288721	          0.02970287	          0.06274676	          0.08832416	          0.01461083	          0.01720046	          0.01426766	          0.02120647	          0.03514480	          0.09982422	          0.01047552	          0.11189362	          0.01121068	          0.01061317	          0.01083224	          0.02965302	          0.01081462	          0.01561863	          0.01075761	          0.01529322	          0.01678026	          0.01086141	          0.01276817	          0.02264516	          0.01690050	          0.01268716	          0.03769666	          0.07454485	          0.01028076	          0.06805541	          0.03179024	
          4.66000000	        -33.58576932	         -0.51010731	        -19.08298436	         -6.23566502	         32.58560583	         -1.99950077	          3.39685866	         74.80332078	          2.82199094	          0.01985099	          0.08086447	          0.01296972	          0.02959123	          0.06264694	          0.08808609	          0.01458371	          0.01717548	          0.01427277	          0.02096496	          0.03614649	          0.10097405	          0.01046567	          0.11153110	          0.01120074	          0.01060815	          0.01081802	          0.02987932	          0.01081432	          0.01571328	          0.01076241	          0.01528463	          0.01670593	          0.01086314	          0.01273458	          0.02281169	          0.01693344	          0.01268675	          0.03794419	          0.07501824	          0.01028085	          0.06802354	          0.03257817	
          4.68000000	        -34.05375486	         -0.31615690	        -19.46991403	         -6.22878419	         33.17278962	         -2.33541657	          4.21076720	         74.95589795	          2.79604470	          0.02005404	          0.08131120	          0.01306809	          0.02947123	          0.06259794	          0.08781079	          0.01454955	          0.01714018	          0.01426273	          0.02069577	          0.03719001	          0.10204714	          0.01045613	          0.11117327	          0.01119407	          0.01060529	          0.01080733	          0.03008801	          0.01081671	          0.01580014	          0.01076792	          0.01533149	          0.01667316	          0.01086761	          0.01271225	          0.02292165	          0.01693325	          0.01267640	          0.03818555	          0.07542865	          0.01028186	          0.06794992	          0.03339150	
          4.70000000	        -34.52514981	         -0.12230089	        -19.86087353	         -6.22025000	         33.75632835	         -2.67675796	          5.03446693	         75.09588111	          2.76243071	          0.02026086	          0.08171999	          0.01317851	          0.02936836	          0.06259704	          0.08757619	          0.01451402	          0.01710066	          0.01424325	          0.02041685	          0.03827859	          0.10319877	          0.01044836	          0.11071991	          0.01118617	          0.01060119	          0.01079583	          0.03032678	          0.01081857	          0.01589390	          0.01077231	          0.01541142	          0.01665827	          0.01087262	          0.01269494	          0.02302138	          0.01691787	          0.01265995	          0.03846117	          0.07589827	          0.01028313	          0.06796286	          0.03425186	
